<?xml version="1.0" encoding="UTF-8"?>
<svg id="Capa_1" data-name="Capa 1" xmlns="http://www.w3.org/2000/svg" viewBox="0 0 500 500">
  <defs>
    <style>
      .cls-1 {
        fill: none;
        stroke: #000;
        stroke-linecap: round;
        stroke-miterlimit: 10;
        stroke-width: 7.5062px;
      }
    </style>
  </defs>
  <path class="cls-1" d="m100.223,329.3526h-25.6358c-17.0991,0-30.9606-13.8615-30.9606-30.9606v-128.9426c0-17.0991,13.8615-30.9606,30.9606-30.9606h237.6072c17.0991,0,30.9606,13.8615,30.9606,30.9606v128.9426c0,17.0991-13.8615,30.9606-30.9606,30.9606h-123.2976"/>
  <line class="cls-1" x1="136.0662" y1="153.4437" x2="144.6073" y2="153.4437"/>
  <path class="cls-1" d="m61.2587,199.2832v-28.1231c0-9.7845,7.9319-17.7163,17.7163-17.7163h21.8301"/>
  <line class="cls-1" x1="354.333" y1="329.3526" x2="308.3522" y2="329.3526"/>
  <path class="cls-1" d="m360.7871,193.4644h37.4399c32.1134,0,58.1464,26.033,58.1464,58.1464v77.7417h-17.1956"/>
  <path class="cls-1" d="m383.533,214.1238h17.6435c20.9876,0,38.0014,17.0138,38.0014,38.0014v9.2833h-55.6449v-47.2847Z"/>
  <circle class="cls-1" cx="396.8209" cy="329.3526" r="32.1587"/>
  <circle class="cls-1" cx="144.6073" cy="329.3526" r="32.1587"/>
</svg>