<?xml version="1.0" encoding="UTF-8"?>
<svg id="Capa_1" data-name="Capa 1" xmlns="http://www.w3.org/2000/svg" viewBox="0 0 500 500">
  <defs>
    <style>
      .cls-1 {
        stroke-width: 12.3675px;
      }

      .cls-1, .cls-2 {
        stroke: #000;
      }

      .cls-1, .cls-2, .cls-3 {
        fill: none;
        stroke-linecap: round;
        stroke-miterlimit: 10;
      }

      .cls-2, .cls-3 {
        stroke-width: 12.6631px;
      }

      .cls-3 {
        stroke: #d8a626;
      }
    </style>
  </defs>
  <g>
    <path class="cls-1" d="m380.2637,208.8021l-30.3654,111.2908c-4.3693,16.0138-18.9153,27.1226-35.5144,27.1226h-178.6034c-14.5808,0-27.7946-9.0005-33.7195-22.9679l-40.931-96.4917c-8.3334-19.6453,5.3827-41.7777,25.8908-41.7777h275.8121c11.9144,0,20.567,11.3297,17.4308,22.8239Z"/>
    <line class="cls-2" x1="171.1145" y1="185.9782" x2="171.1145" y2="347.2155"/>
    <line class="cls-2" x1="265.3227" y1="185.9782" x2="265.3227" y2="347.2155"/>
    <line class="cls-2" x1="78.5231" y1="266.5969" x2="356.2314" y2="266.5969"/>
    <line class="cls-2" x1="171.1145" y1="392.4978" x2="275.7559" y2="392.4978"/>
    <path class="cls-1" d="m373.6529,233.0311l19.9613-66.5574c3.2335-10.7815,13.1566-18.1653,24.4126-18.1653h23.3198"/>
    <circle class="cls-2" cx="126.0228" cy="392.4978" r="21.6975"/>
    <circle class="cls-2" cx="320.0689" cy="392.4978" r="21.6975"/>
    <line class="cls-2" x1="82.8895" y1="392.4978" x2="58.6533" y2="392.4978"/>
  </g>
  <path class="cls-3" d="m153.2229,156.0171c0-38.7772,31.4351-70.2123,70.2123-70.2123s70.2123,31.4351,70.2123,70.2123"/>
</svg>