<?xml version="1.0" encoding="UTF-8"?>
<svg id="Capa_1" data-name="Capa 1" xmlns="http://www.w3.org/2000/svg" viewBox="0 0 500 500">
  <defs>
    <style>
      .cls-1 {
        stroke: #d8a626;
        stroke-width: 7.8604px;
      }

      .cls-1, .cls-2 {
        fill: none;
        stroke-linecap: round;
        stroke-miterlimit: 10;
      }

      .cls-2 {
        stroke: #000;
        stroke-width: 7.5062px;
      }
    </style>
  </defs>
  <g>
    <path class="cls-2" d="m406.6244,167.6595h20.1504c14.5641,0,26.3707,11.8066,26.3707,26.3707v141.8304c0,14.5641-11.8066,26.3707-26.3707,26.3707h-226.3471c-14.5641,0-26.3707-11.8066-26.3707-26.3707v-141.8304c0-14.5641,11.8066-26.3707,26.3707-26.3707h15.0598"/>
    <line class="cls-2" x1="331.1607" y1="167.6595" x2="374.9351" y2="167.6595"/>
    <line class="cls-2" x1="249.1784" y1="167.6595" x2="297.1961" y2="167.6595"/>
    <g>
      <rect class="cls-2" x="198.6124" y="215.6784" width="63.5971" height="46.6072" rx="8.3596" ry="8.3596"/>
      <rect class="cls-2" x="281.6773" y="215.6784" width="63.5971" height="46.6072" rx="8.3596" ry="8.3596"/>
      <rect class="cls-2" x="364.7422" y="215.6784" width="63.5971" height="46.6072" rx="8.3596" ry="8.3596"/>
      <rect class="cls-2" x="198.6124" y="286.0702" width="63.5971" height="46.6072" rx="8.3596" ry="8.3596"/>
      <rect class="cls-2" x="281.6773" y="286.0702" width="63.5971" height="46.6072" rx="8.3596" ry="8.3596"/>
      <rect class="cls-2" x="364.7422" y="286.0702" width="63.5971" height="46.6072" rx="8.3596" ry="8.3596"/>
    </g>
    <rect class="cls-2" x="226.6961" y="137.7687" width="11.808" height="47.8571" rx="5.904" ry="5.904"/>
    <rect class="cls-2" x="307.5719" y="137.7687" width="11.808" height="47.8571" rx="5.904" ry="5.904"/>
    <rect class="cls-2" x="384.9837" y="137.7687" width="11.808" height="47.8571" rx="5.904" ry="5.904"/>
  </g>
  <path class="cls-1" d="m158.8807,332.6784c-10.256,4.9496-21.7589,7.7238-33.9096,7.7238-43.1426,0-78.1166-34.974-78.1166-78.1166s34.974-78.1166,78.1166-78.1166c12.6897,0,24.6727,3.0258,35.2669,8.3952"/>
  <path class="cls-1" d="m118.2985,208.768h10.5263c4.1778,0,7.4487,3.5959,7.0542,7.755l-5.5791,58.816c-.3451,3.6379-3.4,6.4167-7.0542,6.4167h0c-3.6832,0-6.7522-2.8217-7.0609-6.492l-4.9471-58.816c-.3476-4.1331,2.9132-7.6798,7.0609-7.6798Z"/>
  <circle class="cls-1" cx="123.5617" cy="309.3738" r="12.3496"/>
</svg>